<?xml version="1.0" standalone="no"?>
<!DOCTYPE svg PUBLIC "-//W3C//DTD SVG 20010904//EN"
 "http://www.w3.org/TR/2001/REC-SVG-20010904/DTD/svg10.dtd">
<svg version="1.0" xmlns="http://www.w3.org/2000/svg"
 width="1280.000000pt" height="835.000000pt" viewBox="0 0 1280.000000 835.000000"
 preserveAspectRatio="xMidYMid meet">
<metadata>
Created by potrace 1.15, written by Peter Selinger 2001-2017
</metadata>
<g transform="translate(0.000000,835.000000) scale(0.100000,-0.100000)"
fill="#000000" stroke="none">
<path d="M5560 8344 c-1399 -25 -2212 -134 -2660 -359 -220 -110 -301 -204
-747 -866 -375 -555 -469 -683 -544 -735 l-37 -25 -51 26 c-147 74 -336 109
-661 122 -300 12 -456 -36 -538 -164 -87 -136 -74 -331 30 -430 78 -75 190
-101 528 -123 151 -10 358 -34 367 -44 2 -1 -15 -43 -38 -92 -23 -49 -95 -215
-161 -369 -84 -197 -128 -287 -146 -302 -68 -58 -166 -98 -264 -109 -54 -6
-61 -10 -116 -68 -194 -203 -330 -554 -387 -1001 -22 -170 -37 -463 -30 -575
5 -77 2 -110 -14 -175 -28 -108 -58 -316 -75 -510 l-14 -160 34 -50 c41 -60
43 -73 8 -50 -14 9 -28 14 -31 11 -3 -3 -8 -84 -11 -180 l-5 -176 32 -60 c33
-61 32 -73 -1 -43 -17 16 -18 10 -18 -169 l0 -185 42 -58 c39 -54 40 -58 17
-53 -13 3 -31 8 -40 12 -18 8 -18 18 7 -299 14 -181 17 -194 50 -264 19 -41
32 -76 30 -79 -3 -3 -17 3 -31 12 -18 12 -25 13 -25 4 0 -31 60 -422 79 -508
27 -131 34 -146 73 -159 230 -74 1243 -117 1560 -65 l108 18 20 40 c21 44 44
165 55 289 l7 78 42 -6 c22 -3 349 -39 726 -80 377 -42 737 -81 800 -89 63 -7
118 -10 121 -7 4 3 19 77 34 163 l28 158 86 0 c47 0 325 -7 616 -15 292 -8
857 -24 1258 -35 803 -22 601 -24 2712 35 292 8 569 15 616 15 l85 0 29 -160
c15 -89 31 -162 34 -164 3 -1 58 3 121 10 63 8 423 47 800 89 377 41 704 78
726 81 l41 6 8 -79 c11 -124 34 -245 55 -289 l20 -40 108 -18 c317 -52 1330
-9 1560 65 39 13 46 28 73 159 19 86 79 477 79 508 0 9 -7 8 -25 -4 -14 -9
-28 -15 -31 -12 -2 3 11 38 30 79 33 70 36 83 50 264 25 317 25 307 7 299 -9
-4 -27 -9 -40 -12 -23 -5 -22 -1 17 53 l42 58 0 185 c0 179 -1 185 -18 169
-33 -30 -34 -18 -1 43 l32 60 -5 176 c-3 96 -8 177 -11 180 -3 3 -17 -2 -31
-11 -35 -23 -33 -10 8 50 l34 50 -14 160 c-16 193 -47 401 -75 510 -16 65 -19
98 -14 175 8 110 -8 402 -30 575 -57 446 -193 798 -387 1001 -55 58 -62 62
-116 68 -98 11 -195 51 -264 109 -18 15 -48 74 -94 182 -37 88 -109 254 -160
370 -51 115 -92 210 -91 212 9 9 220 34 367 43 338 22 450 48 528 123 48 45
70 95 83 180 9 62 8 84 -5 138 -55 213 -219 290 -586 276 -325 -13 -514 -48
-661 -122 l-51 -26 -37 25 c-75 52 -171 182 -534 721 -386 572 -503 721 -636
809 -370 244 -1030 366 -2261 416 -239 10 -1850 20 -2200 14z"/>
</g>
</svg>
