<?xml version="1.0" standalone="no"?>
<!DOCTYPE svg PUBLIC "-//W3C//DTD SVG 20010904//EN"
 "http://www.w3.org/TR/2001/REC-SVG-20010904/DTD/svg10.dtd">
<svg version="1.0" xmlns="http://www.w3.org/2000/svg"
 width="1280.000000pt" height="675.000000pt" viewBox="0 0 1280.000000 675.000000"
 preserveAspectRatio="xMidYMid meet">
<metadata>
Created by potrace 1.15, written by Peter Selinger 2001-2017
</metadata>
<g transform="translate(0.000000,675.000000) scale(0.100000,-0.100000)"
fill="#000000" stroke="none">
<path d="M7850 4804 c-779 -20 -1217 -52 -1477 -110 -244 -54 -377 -134 -742
-447 -88 -75 -162 -137 -165 -137 -4 0 -6 28 -6 63 0 86 -12 101 -80 98 -55
-2 -129 -29 -164 -59 -10 -9 -29 -39 -41 -67 -20 -46 -21 -52 -8 -85 21 -50
42 -70 73 -70 17 0 30 -7 34 -16 4 -9 5 -18 4 -19 -4 -4 -389 -40 -628 -60
-753 -63 -1216 -137 -1680 -270 -347 -100 -482 -172 -796 -426 -196 -159 -275
-259 -300 -381 -15 -72 -24 -94 -55 -138 -10 -14 -20 -52 -24 -85 l-6 -60 39
-35 39 -35 -4 -117 c-3 -104 -8 -129 -43 -234 -22 -65 -40 -128 -40 -141 0
-13 20 -64 45 -113 30 -60 45 -102 45 -128 0 -90 152 -222 255 -222 24 0 101
-18 173 -40 144 -44 501 -133 602 -149 127 -21 892 -77 1320 -97 116 -6 153
-11 184 -27 37 -20 51 -20 445 -14 223 4 456 11 516 17 151 14 417 55 550 84
l110 23 62 -67 c61 -66 159 -128 227 -144 44 -11 547 -76 583 -76 18 0 75 14
127 30 72 23 109 42 150 76 114 92 220 255 282 432 27 78 31 83 54 78 14 -3
97 17 195 46 94 28 573 167 1065 309 l895 258 18 -22 c46 -58 91 -95 125 -105
40 -12 451 -45 473 -38 8 2 27 7 42 11 41 9 115 81 147 145 95 190 128 350
134 650 1 97 9 184 19 233 23 107 22 319 -2 458 -25 147 -85 281 -152 344 -62
58 -134 91 -247 115 -181 37 -302 108 -462 269 -160 162 -358 325 -445 366
-121 57 -297 90 -613 115 -144 11 -650 19 -852 14z"/>
<path d="M1697 2889 c7 -7 15 -10 18 -7 3 3 -2 9 -12 12 -14 6 -15 5 -6 -5z"/>
</g>
</svg>
